# generated from PmQm by Jehee Lee
:FULLY-SPECIFIED
:DEGREES
97
root 14.6552 39.7529 3.47763 -67.1127 87.8863 -59.9998
RightUpLeg 9.41617 0.496818 0.682001
RightLeg 2.27003 7.2708 -1.06728
RightFoot -3.18809 -0.511192 5.90084
RightToes 4.07452e-010 -1.59028e-015 9.93923e-017
Spine -10.0167 -0.217357 0.534155
Spine1 4.55969 -0.414726 -0.220099
HEad -45.1924 1.07709 7.92482
LeftShoulder1 9.93923e-017 -0 1.22299e-017
LeftArm 120.595 -47.7704 -120.867
LeftForeArm 16.3379 -19.5625 2.90735
LeftHand -1.70882 2.12545 40.7625
RightShoulder 1.98785e-016 -4.96962e-017 1.55301e-017
RightArm 71.5822 42.3709 108.029
RightForeArm 50.3436 11.3961 1.81082
RightHand 8.88219 -24.1375 -38.3449
LeftUpLeg 5.48359 -1.56307 0.398582
LeftLeg 10.5137 -1.14248 4.07718
LeftFoot -7.14282 0.0900051 -2.02116
LeftToes 1.53707e-010 -1.11459e-010 1.58109e-011
98
root 14.7267 39.7473 3.48332 -69.3565 87.8955 -62.2103
RightUpLeg 9.62484 0.488094 0.724834
RightLeg 2.186 7.16239 -1.06932
RightFoot -3.25056 -0.511173 5.93739
RightToes 4.07452e-010 -1.59028e-015 9.93923e-017
Spine -9.93489 -0.270361 0.489054
Spine1 3.8234 -0.465536 -0.189417
HEad -45.8627 0.668402 8.3564
LeftShoulder1 9.93923e-017 -0 1.22299e-017
LeftArm 117.256 -48.2372 -121.469
LeftForeArm 20.4547 -18.7069 1.76644
LeftHand -1.70988 2.11337 40.6661
RightShoulder 1.98785e-016 -4.96962e-017 1.55301e-017
RightArm 70.9425 42.779 107.79
RightForeArm 50.9946 11.1257 2.00165
RightHand 8.79573 -24.0453 -38.1234
LeftUpLeg 5.6275 -1.55368 0.450774
LeftLeg 10.5147 -1.2287 4.07837
LeftFoot -7.25902 0.0895012 -2.06201
LeftToes 1.53707e-010 -1.11459e-010 1.58109e-011
99
root 14.7958 39.7448 3.49074 -70.5729 87.896 -63.3814
RightUpLeg 9.83742 0.467965 0.745773
RightLeg 2.10185 7.11212 -1.05692
RightFoot -3.2991 -0.511539 5.97038
RightToes 4.07452e-010 -1.59028e-015 9.93923e-017
Spine -9.74628 -0.362173 0.292238
Spine1 2.97629 -0.582057 0.0422164
HEad -46.3284 0.236484 8.73037
LeftShoulder1 9.93923e-017 -0 1.22299e-017
LeftArm 113.954 -48.7329 -121.949
LeftForeArm 24.1783 -17.8339 0.747581
LeftHand -1.67533 2.1585 40.4829
RightShoulder 1.98785e-016 -4.96962e-017 1.55301e-017
RightArm 70.9103 43.082 107.74
RightForeArm 50.9528 10.9816 2.10294
RightHand 8.78655 -24.0251 -38.126
LeftUpLeg 5.81859 -1.42608 0.522582
LeftLeg 10.4418 -1.39157 4.04605
LeftFoot -7.35167 0.0887241 -2.08071
LeftToes 1.53707e-010 -1.11459e-010 1.58109e-011
100
root 14.8585 39.7432 3.49872 -69.9438 87.8576 -62.6532
RightUpLeg 10.0803 0.415381 0.736561
RightLeg 2.03759 7.18791 -0.998267
RightFoot -3.34204 -0.505962 5.93281
RightToes 4.07452e-010 -1.59028e-015 9.93923e-017
Spine -9.70406 -0.494841 0.00161547
Spine1 2.47624 -0.767192 0.425059
HEad -46.6927 0.260233 8.9797
LeftShoulder1 9.93923e-017 -0 1.22299e-017
LeftArm 110.956 -49.2703 -122.176
LeftForeArm 27.283 -16.9981 -0.111864
LeftHand -1.63127 2.21542 40.2384
RightShoulder 1.98785e-016 -4.96962e-017 1.55301e-017
RightArm 71.5637 43.4379 107.991
RightForeArm 50.4158 10.9598 2.12316
RightHand 8.80763 -24.0518 -38.1693
LeftUpLeg 6.08829 -1.21125 0.613301
LeftLeg 10.3209 -1.59794 4.02077
LeftFoot -7.43633 0.0885737 -2.11533
LeftToes 1.53707e-010 -1.11459e-010 1.58109e-011
101
root 14.9098 39.7414 3.50771 -68.311 87.7855 -60.894
RightUpLeg 10.3204 0.3656 0.72928
RightLeg 1.98956 7.32231 -0.924043
RightFoot -3.38105 -0.497578 5.86088
RightToes 4.07452e-010 -1.59028e-015 9.93923e-017
Spine -9.87779 -0.624818 -0.269778
Spine1 2.35088 -0.946966 0.746936
HEad -46.9434 0.615061 9.28551
LeftShoulder1 9.93923e-017 -0 1.22299e-017
LeftArm 108.585 -49.6814 -122.2
LeftForeArm 29.8082 -16.286 -0.766609
LeftHand -1.60882 2.23235 39.9946
RightShoulder 1.98785e-016 -4.96962e-017 1.55301e-017
RightArm 72.0199 43.8458 108.31
RightForeArm 50.2424 10.9022 2.16454
RightHand 8.90069 -24.142 -38.4293
LeftUpLeg 6.38349 -0.94502 0.720859
LeftLeg 10.1787 -1.83374 4.01438
LeftFoot -7.52501 0.0909276 -2.19797
LeftToes 1.53707e-010 -1.11459e-010 1.58109e-011
102
root 14.9506 39.7392 3.51775 -66.4695 87.7349 -58.9632
RightUpLeg 10.48 0.344375 0.719279
RightLeg 1.9794 7.43142 -0.891708
RightFoot -3.43552 -0.490838 5.82747
RightToes 4.07452e-010 -1.59028e-015 9.93923e-017
Spine -10.1788 -0.707818 -0.491398
Spine1 2.37545 -1.04344 0.874064
HEad -47.1138 0.778209 9.8378
LeftShoulder1 9.93923e-017 -0 1.22299e-017
LeftArm 108.34 -49.7918 -122.207
LeftForeArm 30.4403 -16.1021 -0.92228
LeftHand -1.59459 2.23151 39.7271
RightShoulder 1.98785e-016 -4.96962e-017 1.55301e-017
RightArm 72.0229 44.1364 108.368
RightForeArm 50.4285 10.8167 2.22096
RightHand 8.93815 -24.1915 -38.4994
LeftUpLeg 6.63817 -0.683424 0.795976
LeftLeg 10.009 -2.02972 4.00468
LeftFoot -7.60999 0.0941477 -2.29849
LeftToes 1.53707e-010 -1.11459e-010 1.58109e-011
103
root 14.9821 39.7361 3.52721 -64.8204 87.7293 -57.2793
RightUpLeg 10.5404 0.333796 0.691737
RightLeg 2.01899 7.5035 -0.901058
RightFoot -3.51342 -0.487072 5.82765
RightToes 4.07452e-010 -1.59028e-015 9.93923e-017
Spine -10.4629 -0.751449 -0.692339
Spine1 2.39097 -1.06947 0.893913
HEad -47.3643 0.629424 10.5258
LeftShoulder1 9.93923e-017 -0 1.22299e-017
LeftArm 110.879 -49.625 -122.237
LeftForeArm 28.3917 -16.6566 -0.433061
LeftHand -1.56443 2.25212 39.3731
RightShoulder 1.98785e-016 -4.96962e-017 1.55301e-017
RightArm 72.2347 44.1897 108.143
RightForeArm 50.2168 10.867 2.18883
RightHand 8.89343 -24.1755 -38.3071
LeftUpLeg 6.81296 -0.527072 0.80429
LeftLeg 9.85811 -2.09673 3.99482
LeftFoot -7.68983 0.0966091 -2.38445
LeftToes 1.53707e-010 -1.11459e-010 1.58109e-011
104
root 14.9997 39.731 3.53372 -63.5445 87.7118 -55.9723
RightUpLeg 10.5702 0.32181 0.678022
RightLeg 2.0755 7.57784 -0.906317
RightFoot -3.58976 -0.484179 5.82084
RightToes 4.07452e-010 -1.59028e-015 9.93923e-017
Spine -10.6059 -0.782647 -0.856203
Spine1 2.36616 -1.08981 0.955579
HEad -47.8087 0.538027 11.1219
LeftShoulder1 9.93923e-017 -0 1.22299e-017
LeftArm 114.206 -49.3664 -122.178
LeftForeArm 25.5432 -17.4564 0.343189
LeftHand -1.52736 2.27831 38.9413
RightShoulder 1.98785e-016 -4.96962e-017 1.55301e-017
RightArm 72.6748 44.0866 107.92
RightForeArm 49.7232 11.0044 2.09947
RightHand 8.93186 -24.229 -38.3725
LeftUpLeg 6.90712 -0.523685 0.786245
LeftLeg 9.8189 -2.02869 4.02516
LeftFoot -7.77674 0.0990343 -2.47569
LeftToes 1.53707e-010 -1.11459e-010 1.58109e-011
105
root 14.9996 39.7241 3.5369 -62.1534 87.6187 -54.5069
RightUpLeg 10.6244 0.333663 0.720184
RightLeg 2.11758 7.68051 -0.898493
RightFoot -3.64518 -0.482686 5.81513
RightToes 4.07452e-010 -1.59028e-015 9.93923e-017
Spine -10.6082 -0.797126 -0.932334
Spine1 2.37309 -1.11929 1.06527
HEad -48.361 0.683321 11.5965
LeftShoulder1 9.93923e-017 -0 1.22299e-017
LeftArm 116.428 -49.1642 -122.009
LeftForeArm 23.8479 -18.0077 0.949556
LeftHand -1.49866 2.2851 38.4729
RightShoulder 1.98785e-016 -4.96962e-017 1.55301e-017
RightArm 72.5641 43.9991 107.91
RightForeArm 49.8438 10.9963 2.10362
RightHand 8.96518 -24.318 -38.3235
LeftUpLeg 6.95357 -0.611159 0.800705
LeftLeg 9.91634 -1.87263 4.10515
LeftFoot -7.8737 0.101968 -2.58547
LeftToes 1.53707e-010 -1.11459e-010 1.58109e-011
106
root 14.9857 39.7165 3.53896 -59.802 87.4533 -52.0629
RightUpLeg 10.6626 0.393404 0.811203
RightLeg 2.16285 7.80289 -0.915754
RightFoot -3.6932 -0.48366 5.82828
RightToes 4.07452e-010 -1.59028e-015 9.93923e-017
Spine -10.6378 -0.781188 -0.906931
Spine1 2.5857 -1.12322 1.10385
HEad -48.8111 0.854947 12.0512
LeftShoulder1 9.93923e-017 -0 1.22299e-017
LeftArm 118.172 -49.0999 -121.848
LeftForeArm 22.7199 -18.404 1.42471
LeftHand -1.46676 2.29581 37.9781
RightShoulder 1.98785e-016 -4.96962e-017 1.55301e-017
RightArm 71.8103 44.0393 108.068
RightForeArm 50.6855 10.7972 2.23117
RightHand 8.73466 -24.2333 -37.3333
LeftUpLeg 6.96808 -0.705621 0.852605
LeftLeg 10.0921 -1.64006 4.18193
LeftFoot -7.96964 0.103606 -2.67127
LeftToes 1.53707e-010 -1.11459e-010 1.58109e-011
107
root 14.9648 39.7094 3.53971 -56.3803 87.2516 -48.597
RightUpLeg 10.6039 0.485296 0.907798
RightLeg 2.24177 7.94253 -0.970894
RightFoot -3.74282 -0.484317 5.83278
RightToes 4.07452e-010 -1.59028e-015 9.93923e-017
Spine -10.8501 -0.743904 -0.804155
Spine1 3.10074 -1.08549 1.00318
HEad -49.0035 0.934143 12.5568
LeftShoulder1 9.93923e-017 -0 1.22299e-017
LeftArm 119.921 -49.2807 -121.872
LeftForeArm 21.7887 -18.7125 1.81134
LeftHand -1.42287 2.33177 37.493
RightShoulder 1.98785e-016 -4.96962e-017 1.55301e-017
RightArm 71.0674 44.272 108.282
RightForeArm 51.6241 10.5456 2.38676
RightHand 8.43786 -24.0195 -36.2934
LeftUpLeg 6.92059 -0.786285 0.910096
LeftLeg 10.2917 -1.32504 4.20818
LeftFoot -8.05183 0.102756 -2.6999
LeftToes 1.53707e-010 -1.11459e-010 1.58109e-011
108
root 14.9406 39.7048 3.53456 -52.6195 87.0246 -44.8687
RightUpLeg 10.4425 0.570048 0.977092
RightLeg 2.32934 8.12591 -1.02154
RightFoot -3.76519 -0.482821 5.81112
RightToes 4.07452e-010 -1.59028e-015 9.93923e-017
Spine -11.1501 -0.696548 -0.683998
Spine1 3.69386 -1.02737 0.870927
HEad -48.9048 1.06962 13.1619
LeftShoulder1 9.93923e-017 -0 1.22299e-017
LeftArm 120.029 -49.7585 -122.207
LeftForeArm 22.9193 -18.5674 1.64909
LeftHand -1.39156 2.35502 37.1187
RightShoulder 1.98785e-016 -4.96962e-017 1.55301e-017
RightArm 70.3125 44.7463 108.536
RightForeArm 52.6738 10.2273 2.57284
RightHand 8.52668 -23.9803 -36.8621
LeftUpLeg 6.80018 -0.856082 0.951391
LeftLeg 10.4755 -0.975974 4.20562
LeftFoot -8.10531 0.101823 -2.70653
LeftToes 1.53707e-010 -1.11459e-010 1.58109e-011
109
root 14.9164 39.7048 3.52207 -49.4601 86.787 -41.7891
RightUpLeg 10.2638 0.625067 1.01403
RightLeg 2.35162 8.34655 -1.02874
RightFoot -3.7288 -0.482691 5.80217
RightToes 4.07452e-010 -1.59028e-015 9.93923e-017
Spine -11.246 -0.635675 -0.670126
Spine1 3.91297 -0.978801 0.924065
HEad -48.5045 1.3134 13.8547
LeftShoulder1 9.93923e-017 -0 1.22299e-017
LeftArm 117.574 -50.4026 -122.809
LeftForeArm 26.8738 -17.7698 0.747965
LeftHand -1.39454 2.3272 36.9106
RightShoulder 1.98785e-016 -4.96962e-017 1.55301e-017
RightArm 69.1741 45.3995 108.802
RightForeArm 54.0152 9.75611 2.82921
RightHand 8.87554 -24.1299 -38.3284
LeftUpLeg 6.66022 -0.885369 0.971682
LeftLeg 10.5842 -0.687712 4.22587
LeftFoot -8.11502 0.103194 -2.73618
LeftToes 1.53707e-010 -1.11459e-010 1.58109e-011
110
root 14.8986 39.7091 3.50901 -47.4895 86.5998 -39.9171
RightUpLeg 10.1356 0.660145 1.03405
RightLeg 2.27432 8.51747 -1.01028
RightFoot -3.64893 -0.486652 5.83648
RightToes 4.07452e-010 -1.59028e-015 9.93923e-017
Spine -10.9968 -0.56704 -0.858685
Spine1 3.51987 -0.951083 1.246
HEad -47.7382 1.47752 14.5065
LeftShoulder1 9.93923e-017 -0 1.22299e-017
LeftArm 114.332 -51.0059 -123.512
LeftForeArm 31.2979 -16.7124 -0.311009
LeftHand -1.41248 2.28028 36.8091
RightShoulder 1.98785e-016 -4.96962e-017 1.55301e-017
RightArm 68.2482 46.05 108.958
RightForeArm 54.8798 9.28623 3.06598
RightHand 8.94398 -24.1816 -38.5548
LeftUpLeg 6.54375 -0.864477 0.971665
LeftLeg 10.5905 -0.514204 4.27249
LeftFoot -8.08104 0.105746 -2.76828
LeftToes 1.53707e-010 -1.11459e-010 1.58109e-011
